<svg xmlns="http://www.w3.org/2000/svg" width="117" height="150" viewBox="0 0 117 150" fill="none">
  <path d="M85 140L86 139V138L84.5 136.5L82 135.5L81 134V117.5L83 115.5L81.5 114V108.5L79.5 107.5V97L78.5 96V87.5L79.5 89L80.5 91L80 92.5L81.5 95V99.5L82 100V108H83L84 108.5L85 108V106.5L86 106V101.5L85 100V97.5L84.5 93L84 90L83 87.5V83H84.5L84 79.5V77.5L83 75L82 73.5L81.5 71L80 69L78.5 66.5L77.5 65L76 64H74.5L74 63L76.5 60.5V58.5L75 56V54L74 52.5L72.5 50.5H66L64.5 51.5L63 53L62 54.5V59.5L62.5 62L64.5 63.5H61L61.5 65L63 66L61.5 67.5L60 68L58.5 69L58 70L57.5 69.5L58 67.5H58.5L59 66V63.5L58.5 60.5V59.5L57.5 58.5L56 58L54.5 57H53.5L52 55.5L51 55V52.5L52 50.5L53.5 49.5L54.5 48V40.5L53.5 39L52 37.5L50.5 37L49 36H44L41.5 37L40.5 38.5L41 41.5V44L40 45V47L41 48V49.5H37.5L36 51.5L35 53L34 54L33.5 56V57H37L38.5 55L40 54L41 53.5L42.5 52.5V53.5L41 55L39.5 56L38.5 57L36 58.5L33 60.5V92L33.5 93.5L35 97.5L36 99.5L37 102.5V116L40 117V139H44L46 138V116H51V138L51.5 139H55.5L56 138V116H59V102.5L60 108.5L62 115.5L64 117.5V123L65 126V127.5L66 130V138L66.5 139L67.5 139.5L68.5 139L69 138V105L70.5 107.5L71 109L74 115V128L75 129V135.5L75.5 137L80 140H85Z" fill="currentColor"/>
  <path d="M26.5 148V146L26 145H20.5L18.5 143.5L16.5 141.5V131.5L17 126H18.5L21.5 125V85.5L22 82.5L23.5 76.5V68.5L24 64.5L24.5 64V62L25.5 59.5V58L26 57H27.5L29 56L30 55.5L31 54.5L31.5 53.5V52L31 50.5V49L29 46L27.5 44L26.5 42.5V41L30 38.5L31 37.5L32.5 38L33.5 37V35.5L34 34L35.5 31.5L53.5 12L65.5 22.5L82.5 35.5L86 36.5V43L85.5 47L85 52.5L84.5 56.5L83.5 62V75L86.5 77L91 77.5L92.5 80.8339V96L93.5 97V98L94 99V100L95.5 102.5V104.5L96.5 107V111.5L97.5 112V121L98.5 121.5V123L99.5 125V130H103.5V142L103 142.5L102 143H101L100.5 144H97.5L96 144.5H95L94.5 145V146L95 147.5L97.5 149H111L111.5 148.5L112.5 148L113 146V137L113.5 136.5V129.5H115.5V80.5L116.5 80V67.5L115.5 64.5L114.5 64V63L114 62L113.5 60.5L113 56.5V55L112 53.5V32.5L111.5 31V30L110.5 28V26L110 25.5L109.5 24.5H109L108 22.5L106 21.5L104.5 20.5L103 20L102.5 18H102L101.5 17.5V17L100.5 16V10.5L100 10H99.5V9L98.5 8L97.5 7.5V7L96 5.5H89L88 6H87L86.5 6.5L85 7.5L84.5 9V16L85.5 17H84.5L83.5 16.5L81.5 14.5L80 13.5H79L77 13H75.5L73 11.5H72.5L70.5 11L69 10H65.5L61.5 8L60 7L59 5V4L58.5 2L57.5 1L56 0H54.5L53 1L52.5 2L51.5 3H50.5V4L49.5 5V7L50.5 8L47.5 11L46 11.5L45 12L43.5 13.5L41.5 14.5L38 18L36.5 20L35 21.5L34 22H32.5L32 21.5V21L30 20H28L26.5 20.5L25.5 21L24.5 22L23.5 21.5L22.5 20.5L21.5 20L20.5 19H18L17 20L16.5 21L15.5 22V24L16.5 25L17 26.5L18.5 28L19 30L18 31L15.5 30L12.5 33L11 34L10 34.5L8.5 36L8 38V39.5H10L9 41L8.5 42L7.5 43V44.5L7 46V52.5L7.5 56V60L6.5 61.5V64.5L6 67L3 70L2 71.5L0.5 73L0 74V81.5L0.5 83.5L1.5 87L2.5 88V89.5L3 92L1.5 98V102.5L0.5 125L6.5 125.5V136.5L7 139L8 141.5V148L9 149.5H25.5L26.5 148Z" fill="currentColor"/>
</svg>